<mxfile host="app.diagrams.net" agent="Mozilla/5.0 (Windows NT 10.0; Win64; x64) AppleWebKit/537.36 (KHTML, like Gecko) Chrome/130.0.0.0 Safari/537.36 OPR/115.0.0.0" version="26.0.2" pages="2">
  <diagram id="C5RBs43oDa-KdzZeNtuy" name="Flow-Chart">
    <mxGraphModel dx="3323" dy="1074" grid="1" gridSize="10" guides="1" tooltips="1" connect="1" arrows="1" fold="1" page="1" pageScale="1" pageWidth="827" pageHeight="1169" math="0" shadow="0">
      <root>
        <mxCell id="WIyWlLk6GJQsqaUBKTNV-0" />
        <mxCell id="WIyWlLk6GJQsqaUBKTNV-1" parent="WIyWlLk6GJQsqaUBKTNV-0" />
        <mxCell id="WIyWlLk6GJQsqaUBKTNV-2" value="" style="rounded=0;html=1;jettySize=auto;orthogonalLoop=1;fontSize=11;endArrow=block;endFill=0;endSize=8;strokeWidth=1;shadow=0;labelBackgroundColor=none;edgeStyle=orthogonalEdgeStyle;" parent="WIyWlLk6GJQsqaUBKTNV-1" source="WIyWlLk6GJQsqaUBKTNV-3" target="WIyWlLk6GJQsqaUBKTNV-6" edge="1">
          <mxGeometry relative="1" as="geometry" />
        </mxCell>
        <mxCell id="WIyWlLk6GJQsqaUBKTNV-3" value="Turn on alarm" style="rounded=1;whiteSpace=wrap;html=1;fontSize=12;glass=0;strokeWidth=1;shadow=0;" parent="WIyWlLk6GJQsqaUBKTNV-1" vertex="1">
          <mxGeometry x="160" y="80" width="120" height="40" as="geometry" />
        </mxCell>
        <mxCell id="WIyWlLk6GJQsqaUBKTNV-5" value="No" style="edgeStyle=orthogonalEdgeStyle;rounded=0;html=1;jettySize=auto;orthogonalLoop=1;fontSize=11;endArrow=block;endFill=0;endSize=8;strokeWidth=1;shadow=0;labelBackgroundColor=none;" parent="WIyWlLk6GJQsqaUBKTNV-1" source="WIyWlLk6GJQsqaUBKTNV-6" target="WIyWlLk6GJQsqaUBKTNV-7" edge="1">
          <mxGeometry y="10" relative="1" as="geometry">
            <mxPoint as="offset" />
          </mxGeometry>
        </mxCell>
        <mxCell id="61KUt9iwjNR2aaostDay-4" style="edgeStyle=orthogonalEdgeStyle;rounded=0;orthogonalLoop=1;jettySize=auto;html=1;exitX=0.5;exitY=1;exitDx=0;exitDy=0;" edge="1" parent="WIyWlLk6GJQsqaUBKTNV-1" source="WIyWlLk6GJQsqaUBKTNV-6" target="61KUt9iwjNR2aaostDay-1">
          <mxGeometry relative="1" as="geometry" />
        </mxCell>
        <mxCell id="61KUt9iwjNR2aaostDay-6" value="Yes" style="edgeLabel;html=1;align=center;verticalAlign=middle;resizable=0;points=[];" vertex="1" connectable="0" parent="61KUt9iwjNR2aaostDay-4">
          <mxGeometry x="0.1338" y="-1" relative="1" as="geometry">
            <mxPoint x="19" as="offset" />
          </mxGeometry>
        </mxCell>
        <mxCell id="WIyWlLk6GJQsqaUBKTNV-6" value="Has an alarm already been set?" style="rhombus;whiteSpace=wrap;html=1;shadow=0;fontFamily=Helvetica;fontSize=12;align=center;strokeWidth=1;spacing=6;spacingTop=-4;" parent="WIyWlLk6GJQsqaUBKTNV-1" vertex="1">
          <mxGeometry x="160" y="170" width="120" height="100" as="geometry" />
        </mxCell>
        <mxCell id="61KUt9iwjNR2aaostDay-2" style="edgeStyle=orthogonalEdgeStyle;rounded=0;orthogonalLoop=1;jettySize=auto;html=1;exitX=1;exitY=0.5;exitDx=0;exitDy=0;entryX=0;entryY=0.5;entryDx=0;entryDy=0;" edge="1" parent="WIyWlLk6GJQsqaUBKTNV-1" source="WIyWlLk6GJQsqaUBKTNV-7" target="61KUt9iwjNR2aaostDay-0">
          <mxGeometry relative="1" as="geometry" />
        </mxCell>
        <mxCell id="WIyWlLk6GJQsqaUBKTNV-7" value="Prompt user to set alarm" style="rounded=1;whiteSpace=wrap;html=1;fontSize=12;glass=0;strokeWidth=1;shadow=0;" parent="WIyWlLk6GJQsqaUBKTNV-1" vertex="1">
          <mxGeometry x="320" y="200" width="120" height="40" as="geometry" />
        </mxCell>
        <mxCell id="wZQ27z2wQF13kXDg69n1-1" value="Start" style="ellipse;whiteSpace=wrap;html=1;shadow=0;" vertex="1" parent="WIyWlLk6GJQsqaUBKTNV-1">
          <mxGeometry x="175" y="10" width="90" height="50" as="geometry" />
        </mxCell>
        <mxCell id="61KUt9iwjNR2aaostDay-3" style="edgeStyle=orthogonalEdgeStyle;rounded=0;orthogonalLoop=1;jettySize=auto;html=1;exitX=0.5;exitY=1;exitDx=0;exitDy=0;entryX=1;entryY=0.5;entryDx=0;entryDy=0;" edge="1" parent="WIyWlLk6GJQsqaUBKTNV-1" source="61KUt9iwjNR2aaostDay-0" target="61KUt9iwjNR2aaostDay-1">
          <mxGeometry relative="1" as="geometry" />
        </mxCell>
        <mxCell id="61KUt9iwjNR2aaostDay-0" value="User sets alarm" style="rounded=1;whiteSpace=wrap;html=1;fontSize=12;glass=0;strokeWidth=1;shadow=0;" vertex="1" parent="WIyWlLk6GJQsqaUBKTNV-1">
          <mxGeometry x="460" y="200" width="120" height="40" as="geometry" />
        </mxCell>
        <mxCell id="61KUt9iwjNR2aaostDay-23" style="edgeStyle=orthogonalEdgeStyle;rounded=0;orthogonalLoop=1;jettySize=auto;html=1;exitX=0.5;exitY=1;exitDx=0;exitDy=0;entryX=0.5;entryY=0;entryDx=0;entryDy=0;" edge="1" parent="WIyWlLk6GJQsqaUBKTNV-1" source="61KUt9iwjNR2aaostDay-1" target="61KUt9iwjNR2aaostDay-14">
          <mxGeometry relative="1" as="geometry" />
        </mxCell>
        <mxCell id="61KUt9iwjNR2aaostDay-1" value="Show Main screen with current time, upcoming time and temperature" style="rounded=1;whiteSpace=wrap;html=1;fontSize=12;glass=0;strokeWidth=1;shadow=0;" vertex="1" parent="WIyWlLk6GJQsqaUBKTNV-1">
          <mxGeometry x="155" y="300" width="130" height="80" as="geometry" />
        </mxCell>
        <mxCell id="FlYahWDBEmZcP4piark4-1" style="edgeStyle=orthogonalEdgeStyle;rounded=0;orthogonalLoop=1;jettySize=auto;html=1;exitX=0.5;exitY=1;exitDx=0;exitDy=0;entryX=0.5;entryY=0;entryDx=0;entryDy=0;" edge="1" parent="WIyWlLk6GJQsqaUBKTNV-1" source="61KUt9iwjNR2aaostDay-7" target="61KUt9iwjNR2aaostDay-9">
          <mxGeometry relative="1" as="geometry" />
        </mxCell>
        <mxCell id="61KUt9iwjNR2aaostDay-7" value="Sound alarm" style="rounded=1;whiteSpace=wrap;html=1;fontSize=12;glass=0;strokeWidth=1;shadow=0;" vertex="1" parent="WIyWlLk6GJQsqaUBKTNV-1">
          <mxGeometry x="155" y="530" width="130" height="80" as="geometry" />
        </mxCell>
        <mxCell id="FlYahWDBEmZcP4piark4-2" style="edgeStyle=orthogonalEdgeStyle;rounded=0;orthogonalLoop=1;jettySize=auto;html=1;exitX=0.5;exitY=1;exitDx=0;exitDy=0;entryX=0.5;entryY=0;entryDx=0;entryDy=0;" edge="1" parent="WIyWlLk6GJQsqaUBKTNV-1" source="61KUt9iwjNR2aaostDay-9" target="61KUt9iwjNR2aaostDay-10">
          <mxGeometry relative="1" as="geometry" />
        </mxCell>
        <mxCell id="FlYahWDBEmZcP4piark4-3" style="edgeStyle=orthogonalEdgeStyle;rounded=0;orthogonalLoop=1;jettySize=auto;html=1;exitX=1;exitY=0.5;exitDx=0;exitDy=0;" edge="1" parent="WIyWlLk6GJQsqaUBKTNV-1" source="61KUt9iwjNR2aaostDay-9" target="61KUt9iwjNR2aaostDay-12">
          <mxGeometry relative="1" as="geometry" />
        </mxCell>
        <mxCell id="61KUt9iwjNR2aaostDay-9" value="Has user used sensor after two minutes?" style="rhombus;whiteSpace=wrap;html=1;shadow=0;fontFamily=Helvetica;fontSize=12;align=center;strokeWidth=1;spacing=6;spacingTop=-4;" vertex="1" parent="WIyWlLk6GJQsqaUBKTNV-1">
          <mxGeometry x="160" y="650" width="120" height="100" as="geometry" />
        </mxCell>
        <mxCell id="FlYahWDBEmZcP4piark4-26" style="edgeStyle=orthogonalEdgeStyle;rounded=0;orthogonalLoop=1;jettySize=auto;html=1;exitX=0.5;exitY=1;exitDx=0;exitDy=0;entryX=1;entryY=0.75;entryDx=0;entryDy=0;" edge="1" parent="WIyWlLk6GJQsqaUBKTNV-1" source="61KUt9iwjNR2aaostDay-10" target="61KUt9iwjNR2aaostDay-1">
          <mxGeometry relative="1" as="geometry">
            <Array as="points">
              <mxPoint x="220" y="890" />
              <mxPoint x="750" y="890" />
              <mxPoint x="750" y="360" />
            </Array>
          </mxGeometry>
        </mxCell>
        <mxCell id="61KUt9iwjNR2aaostDay-10" value="Turn off alarm" style="rounded=1;whiteSpace=wrap;html=1;fontSize=12;glass=0;strokeWidth=1;shadow=0;" vertex="1" parent="WIyWlLk6GJQsqaUBKTNV-1">
          <mxGeometry x="155" y="790" width="130" height="80" as="geometry" />
        </mxCell>
        <mxCell id="FlYahWDBEmZcP4piark4-10" style="edgeStyle=orthogonalEdgeStyle;rounded=0;orthogonalLoop=1;jettySize=auto;html=1;exitX=1;exitY=0.5;exitDx=0;exitDy=0;entryX=1;entryY=0.25;entryDx=0;entryDy=0;" edge="1" parent="WIyWlLk6GJQsqaUBKTNV-1" source="61KUt9iwjNR2aaostDay-11" target="61KUt9iwjNR2aaostDay-1">
          <mxGeometry relative="1" as="geometry">
            <Array as="points">
              <mxPoint x="770" y="830" />
              <mxPoint x="770" y="320" />
            </Array>
          </mxGeometry>
        </mxCell>
        <mxCell id="61KUt9iwjNR2aaostDay-11" value="Turn off alarm" style="rounded=1;whiteSpace=wrap;html=1;fontSize=12;glass=0;strokeWidth=1;shadow=0;" vertex="1" parent="WIyWlLk6GJQsqaUBKTNV-1">
          <mxGeometry x="354" y="790" width="130" height="80" as="geometry" />
        </mxCell>
        <mxCell id="FlYahWDBEmZcP4piark4-4" style="edgeStyle=orthogonalEdgeStyle;rounded=0;orthogonalLoop=1;jettySize=auto;html=1;exitX=0.5;exitY=1;exitDx=0;exitDy=0;entryX=0.5;entryY=0;entryDx=0;entryDy=0;" edge="1" parent="WIyWlLk6GJQsqaUBKTNV-1" source="61KUt9iwjNR2aaostDay-12" target="61KUt9iwjNR2aaostDay-11">
          <mxGeometry relative="1" as="geometry" />
        </mxCell>
        <mxCell id="FlYahWDBEmZcP4piark4-5" style="edgeStyle=orthogonalEdgeStyle;rounded=0;orthogonalLoop=1;jettySize=auto;html=1;exitX=1;exitY=0.5;exitDx=0;exitDy=0;entryX=0;entryY=0.5;entryDx=0;entryDy=0;" edge="1" parent="WIyWlLk6GJQsqaUBKTNV-1" source="61KUt9iwjNR2aaostDay-12" target="61KUt9iwjNR2aaostDay-13">
          <mxGeometry relative="1" as="geometry" />
        </mxCell>
        <mxCell id="61KUt9iwjNR2aaostDay-12" value="Has user sensor for more than 3 seconds" style="rhombus;whiteSpace=wrap;html=1;shadow=0;fontFamily=Helvetica;fontSize=12;align=center;strokeWidth=1;spacing=6;spacingTop=-4;" vertex="1" parent="WIyWlLk6GJQsqaUBKTNV-1">
          <mxGeometry x="359" y="650" width="120" height="100" as="geometry" />
        </mxCell>
        <mxCell id="FlYahWDBEmZcP4piark4-7" style="edgeStyle=orthogonalEdgeStyle;rounded=0;orthogonalLoop=1;jettySize=auto;html=1;exitX=0.5;exitY=0;exitDx=0;exitDy=0;entryX=0.5;entryY=1;entryDx=0;entryDy=0;" edge="1" parent="WIyWlLk6GJQsqaUBKTNV-1" source="61KUt9iwjNR2aaostDay-13" target="FlYahWDBEmZcP4piark4-6">
          <mxGeometry relative="1" as="geometry" />
        </mxCell>
        <mxCell id="61KUt9iwjNR2aaostDay-13" value="Snooze alarm" style="rounded=1;whiteSpace=wrap;html=1;fontSize=12;glass=0;strokeWidth=1;shadow=0;" vertex="1" parent="WIyWlLk6GJQsqaUBKTNV-1">
          <mxGeometry x="525" y="660" width="130" height="80" as="geometry" />
        </mxCell>
        <mxCell id="61KUt9iwjNR2aaostDay-24" style="edgeStyle=orthogonalEdgeStyle;rounded=0;orthogonalLoop=1;jettySize=auto;html=1;exitX=0.5;exitY=1;exitDx=0;exitDy=0;entryX=0.5;entryY=0;entryDx=0;entryDy=0;" edge="1" parent="WIyWlLk6GJQsqaUBKTNV-1" source="61KUt9iwjNR2aaostDay-14" target="61KUt9iwjNR2aaostDay-7">
          <mxGeometry relative="1" as="geometry" />
        </mxCell>
        <mxCell id="61KUt9iwjNR2aaostDay-25" style="edgeStyle=orthogonalEdgeStyle;rounded=0;orthogonalLoop=1;jettySize=auto;html=1;exitX=0;exitY=0.5;exitDx=0;exitDy=0;entryX=1;entryY=0.5;entryDx=0;entryDy=0;" edge="1" parent="WIyWlLk6GJQsqaUBKTNV-1" source="61KUt9iwjNR2aaostDay-14" target="61KUt9iwjNR2aaostDay-16">
          <mxGeometry relative="1" as="geometry" />
        </mxCell>
        <mxCell id="61KUt9iwjNR2aaostDay-14" value="Is current time the same as alarm time?" style="rhombus;whiteSpace=wrap;html=1;shadow=0;fontFamily=Helvetica;fontSize=12;align=center;strokeWidth=1;spacing=6;spacingTop=-4;" vertex="1" parent="WIyWlLk6GJQsqaUBKTNV-1">
          <mxGeometry x="160" y="410" width="120" height="100" as="geometry" />
        </mxCell>
        <mxCell id="61KUt9iwjNR2aaostDay-26" style="edgeStyle=orthogonalEdgeStyle;rounded=0;orthogonalLoop=1;jettySize=auto;html=1;exitX=0.5;exitY=1;exitDx=0;exitDy=0;entryX=0.5;entryY=0;entryDx=0;entryDy=0;" edge="1" parent="WIyWlLk6GJQsqaUBKTNV-1" source="61KUt9iwjNR2aaostDay-16" target="61KUt9iwjNR2aaostDay-17">
          <mxGeometry relative="1" as="geometry" />
        </mxCell>
        <mxCell id="61KUt9iwjNR2aaostDay-16" value="Has user selected menu option?" style="rhombus;whiteSpace=wrap;html=1;shadow=0;fontFamily=Helvetica;fontSize=12;align=center;strokeWidth=1;spacing=6;spacingTop=-4;" vertex="1" parent="WIyWlLk6GJQsqaUBKTNV-1">
          <mxGeometry x="-160" y="410" width="120" height="100" as="geometry" />
        </mxCell>
        <mxCell id="61KUt9iwjNR2aaostDay-27" style="edgeStyle=orthogonalEdgeStyle;rounded=0;orthogonalLoop=1;jettySize=auto;html=1;exitX=0;exitY=0.5;exitDx=0;exitDy=0;entryX=0.5;entryY=0;entryDx=0;entryDy=0;" edge="1" parent="WIyWlLk6GJQsqaUBKTNV-1" source="61KUt9iwjNR2aaostDay-17" target="61KUt9iwjNR2aaostDay-19">
          <mxGeometry relative="1" as="geometry" />
        </mxCell>
        <mxCell id="61KUt9iwjNR2aaostDay-28" style="edgeStyle=orthogonalEdgeStyle;rounded=0;orthogonalLoop=1;jettySize=auto;html=1;exitX=0.5;exitY=1;exitDx=0;exitDy=0;entryX=0.5;entryY=0;entryDx=0;entryDy=0;" edge="1" parent="WIyWlLk6GJQsqaUBKTNV-1" source="61KUt9iwjNR2aaostDay-17" target="61KUt9iwjNR2aaostDay-20">
          <mxGeometry relative="1" as="geometry" />
        </mxCell>
        <mxCell id="61KUt9iwjNR2aaostDay-29" style="edgeStyle=orthogonalEdgeStyle;rounded=0;orthogonalLoop=1;jettySize=auto;html=1;exitX=1;exitY=0.5;exitDx=0;exitDy=0;" edge="1" parent="WIyWlLk6GJQsqaUBKTNV-1" source="61KUt9iwjNR2aaostDay-17" target="61KUt9iwjNR2aaostDay-21">
          <mxGeometry relative="1" as="geometry" />
        </mxCell>
        <mxCell id="61KUt9iwjNR2aaostDay-17" value="Which option?" style="rhombus;whiteSpace=wrap;html=1;shadow=0;fontFamily=Helvetica;fontSize=12;align=center;strokeWidth=1;spacing=6;spacingTop=-4;" vertex="1" parent="WIyWlLk6GJQsqaUBKTNV-1">
          <mxGeometry x="-160" y="530" width="120" height="100" as="geometry" />
        </mxCell>
        <mxCell id="61KUt9iwjNR2aaostDay-31" style="edgeStyle=orthogonalEdgeStyle;rounded=0;orthogonalLoop=1;jettySize=auto;html=1;exitX=0;exitY=0.5;exitDx=0;exitDy=0;entryX=0;entryY=0.5;entryDx=0;entryDy=0;" edge="1" parent="WIyWlLk6GJQsqaUBKTNV-1" source="61KUt9iwjNR2aaostDay-19" target="61KUt9iwjNR2aaostDay-1">
          <mxGeometry relative="1" as="geometry">
            <mxPoint x="150" y="340" as="targetPoint" />
          </mxGeometry>
        </mxCell>
        <mxCell id="61KUt9iwjNR2aaostDay-19" value="1. Back to main screen" style="rounded=1;whiteSpace=wrap;html=1;fontSize=12;glass=0;strokeWidth=1;shadow=0;" vertex="1" parent="WIyWlLk6GJQsqaUBKTNV-1">
          <mxGeometry x="-320" y="680" width="140" height="40" as="geometry" />
        </mxCell>
        <mxCell id="FlYahWDBEmZcP4piark4-12" style="edgeStyle=orthogonalEdgeStyle;rounded=0;orthogonalLoop=1;jettySize=auto;html=1;exitX=0.5;exitY=1;exitDx=0;exitDy=0;entryX=0.5;entryY=0;entryDx=0;entryDy=0;" edge="1" parent="WIyWlLk6GJQsqaUBKTNV-1" source="61KUt9iwjNR2aaostDay-20" target="FlYahWDBEmZcP4piark4-11">
          <mxGeometry relative="1" as="geometry" />
        </mxCell>
        <mxCell id="61KUt9iwjNR2aaostDay-20" value="2. Manage alarm" style="rounded=1;whiteSpace=wrap;html=1;fontSize=12;glass=0;strokeWidth=1;shadow=0;" vertex="1" parent="WIyWlLk6GJQsqaUBKTNV-1">
          <mxGeometry x="-160" y="680" width="120" height="40" as="geometry" />
        </mxCell>
        <mxCell id="61KUt9iwjNR2aaostDay-30" style="edgeStyle=orthogonalEdgeStyle;rounded=0;orthogonalLoop=1;jettySize=auto;html=1;exitX=0.5;exitY=1;exitDx=0;exitDy=0;entryX=0.5;entryY=0;entryDx=0;entryDy=0;" edge="1" parent="WIyWlLk6GJQsqaUBKTNV-1" source="61KUt9iwjNR2aaostDay-21" target="61KUt9iwjNR2aaostDay-22">
          <mxGeometry relative="1" as="geometry" />
        </mxCell>
        <mxCell id="61KUt9iwjNR2aaostDay-21" value="Set ringtone&amp;nbsp;" style="rounded=1;whiteSpace=wrap;html=1;fontSize=12;glass=0;strokeWidth=1;shadow=0;" vertex="1" parent="WIyWlLk6GJQsqaUBKTNV-1">
          <mxGeometry x="-20" y="680" width="120" height="40" as="geometry" />
        </mxCell>
        <mxCell id="FlYahWDBEmZcP4piark4-0" style="edgeStyle=orthogonalEdgeStyle;rounded=0;orthogonalLoop=1;jettySize=auto;html=1;exitX=0.5;exitY=1;exitDx=0;exitDy=0;entryX=0;entryY=0.75;entryDx=0;entryDy=0;" edge="1" parent="WIyWlLk6GJQsqaUBKTNV-1" source="61KUt9iwjNR2aaostDay-22" target="61KUt9iwjNR2aaostDay-1">
          <mxGeometry relative="1" as="geometry" />
        </mxCell>
        <mxCell id="61KUt9iwjNR2aaostDay-22" value="User sets ringtone" style="rounded=1;whiteSpace=wrap;html=1;fontSize=12;glass=0;strokeWidth=1;shadow=0;" vertex="1" parent="WIyWlLk6GJQsqaUBKTNV-1">
          <mxGeometry x="-20" y="750" width="120" height="40" as="geometry" />
        </mxCell>
        <mxCell id="FlYahWDBEmZcP4piark4-8" style="edgeStyle=orthogonalEdgeStyle;rounded=0;orthogonalLoop=1;jettySize=auto;html=1;exitX=0;exitY=0.5;exitDx=0;exitDy=0;" edge="1" parent="WIyWlLk6GJQsqaUBKTNV-1" source="FlYahWDBEmZcP4piark4-6" target="61KUt9iwjNR2aaostDay-7">
          <mxGeometry relative="1" as="geometry" />
        </mxCell>
        <mxCell id="FlYahWDBEmZcP4piark4-6" value="Been 5 minutes?" style="rhombus;whiteSpace=wrap;html=1;shadow=0;fontFamily=Helvetica;fontSize=12;align=center;strokeWidth=1;spacing=6;spacingTop=-4;" vertex="1" parent="WIyWlLk6GJQsqaUBKTNV-1">
          <mxGeometry x="530" y="520" width="120" height="100" as="geometry" />
        </mxCell>
        <mxCell id="FlYahWDBEmZcP4piark4-16" style="edgeStyle=orthogonalEdgeStyle;rounded=0;orthogonalLoop=1;jettySize=auto;html=1;exitX=0;exitY=0.5;exitDx=0;exitDy=0;entryX=0.5;entryY=0;entryDx=0;entryDy=0;" edge="1" parent="WIyWlLk6GJQsqaUBKTNV-1" source="FlYahWDBEmZcP4piark4-11" target="FlYahWDBEmZcP4piark4-13">
          <mxGeometry relative="1" as="geometry" />
        </mxCell>
        <mxCell id="FlYahWDBEmZcP4piark4-17" style="edgeStyle=orthogonalEdgeStyle;rounded=0;orthogonalLoop=1;jettySize=auto;html=1;exitX=0.5;exitY=1;exitDx=0;exitDy=0;entryX=0.5;entryY=0;entryDx=0;entryDy=0;" edge="1" parent="WIyWlLk6GJQsqaUBKTNV-1" source="FlYahWDBEmZcP4piark4-11" target="FlYahWDBEmZcP4piark4-14">
          <mxGeometry relative="1" as="geometry" />
        </mxCell>
        <mxCell id="FlYahWDBEmZcP4piark4-18" style="edgeStyle=orthogonalEdgeStyle;rounded=0;orthogonalLoop=1;jettySize=auto;html=1;exitX=1;exitY=0.5;exitDx=0;exitDy=0;entryX=0.5;entryY=0;entryDx=0;entryDy=0;" edge="1" parent="WIyWlLk6GJQsqaUBKTNV-1" source="FlYahWDBEmZcP4piark4-11" target="FlYahWDBEmZcP4piark4-15">
          <mxGeometry relative="1" as="geometry" />
        </mxCell>
        <mxCell id="FlYahWDBEmZcP4piark4-11" value="Which option?" style="rhombus;whiteSpace=wrap;html=1;shadow=0;fontFamily=Helvetica;fontSize=12;align=center;strokeWidth=1;spacing=6;spacingTop=-4;" vertex="1" parent="WIyWlLk6GJQsqaUBKTNV-1">
          <mxGeometry x="-160" y="780" width="120" height="100" as="geometry" />
        </mxCell>
        <mxCell id="FlYahWDBEmZcP4piark4-20" style="edgeStyle=orthogonalEdgeStyle;rounded=0;orthogonalLoop=1;jettySize=auto;html=1;exitX=0.5;exitY=1;exitDx=0;exitDy=0;entryX=0;entryY=0.5;entryDx=0;entryDy=0;" edge="1" parent="WIyWlLk6GJQsqaUBKTNV-1" source="FlYahWDBEmZcP4piark4-13" target="FlYahWDBEmZcP4piark4-19">
          <mxGeometry relative="1" as="geometry" />
        </mxCell>
        <mxCell id="FlYahWDBEmZcP4piark4-13" value="1. Set alarm" style="rounded=1;whiteSpace=wrap;html=1;fontSize=12;glass=0;strokeWidth=1;shadow=0;" vertex="1" parent="WIyWlLk6GJQsqaUBKTNV-1">
          <mxGeometry x="-320" y="920" width="140" height="40" as="geometry" />
        </mxCell>
        <mxCell id="FlYahWDBEmZcP4piark4-21" style="edgeStyle=orthogonalEdgeStyle;rounded=0;orthogonalLoop=1;jettySize=auto;html=1;exitX=0.5;exitY=1;exitDx=0;exitDy=0;entryX=0.5;entryY=0;entryDx=0;entryDy=0;" edge="1" parent="WIyWlLk6GJQsqaUBKTNV-1" source="FlYahWDBEmZcP4piark4-14" target="FlYahWDBEmZcP4piark4-19">
          <mxGeometry relative="1" as="geometry" />
        </mxCell>
        <mxCell id="FlYahWDBEmZcP4piark4-14" value="2. Update alarm" style="rounded=1;whiteSpace=wrap;html=1;fontSize=12;glass=0;strokeWidth=1;shadow=0;" vertex="1" parent="WIyWlLk6GJQsqaUBKTNV-1">
          <mxGeometry x="-170" y="920" width="140" height="40" as="geometry" />
        </mxCell>
        <mxCell id="FlYahWDBEmZcP4piark4-22" style="edgeStyle=orthogonalEdgeStyle;rounded=0;orthogonalLoop=1;jettySize=auto;html=1;exitX=0.5;exitY=1;exitDx=0;exitDy=0;entryX=1;entryY=0.5;entryDx=0;entryDy=0;" edge="1" parent="WIyWlLk6GJQsqaUBKTNV-1" source="FlYahWDBEmZcP4piark4-15" target="FlYahWDBEmZcP4piark4-19">
          <mxGeometry relative="1" as="geometry" />
        </mxCell>
        <mxCell id="FlYahWDBEmZcP4piark4-15" value="3. Delete alarm" style="rounded=1;whiteSpace=wrap;html=1;fontSize=12;glass=0;strokeWidth=1;shadow=0;" vertex="1" parent="WIyWlLk6GJQsqaUBKTNV-1">
          <mxGeometry x="-20" y="920" width="140" height="40" as="geometry" />
        </mxCell>
        <mxCell id="FlYahWDBEmZcP4piark4-23" style="edgeStyle=orthogonalEdgeStyle;rounded=0;orthogonalLoop=1;jettySize=auto;html=1;exitX=0.5;exitY=1;exitDx=0;exitDy=0;entryX=0;entryY=0.25;entryDx=0;entryDy=0;" edge="1" parent="WIyWlLk6GJQsqaUBKTNV-1" source="FlYahWDBEmZcP4piark4-19" target="61KUt9iwjNR2aaostDay-1">
          <mxGeometry relative="1" as="geometry">
            <Array as="points">
              <mxPoint x="-100" y="1060" />
              <mxPoint x="-370" y="1060" />
              <mxPoint x="-370" y="320" />
            </Array>
          </mxGeometry>
        </mxCell>
        <mxCell id="FlYahWDBEmZcP4piark4-19" value="Back to main menu" style="rounded=1;whiteSpace=wrap;html=1;fontSize=12;glass=0;strokeWidth=1;shadow=0;" vertex="1" parent="WIyWlLk6GJQsqaUBKTNV-1">
          <mxGeometry x="-170" y="1000" width="140" height="40" as="geometry" />
        </mxCell>
      </root>
    </mxGraphModel>
  </diagram>
  <diagram id="eEwaZSRgZAd7NkYnfdaY" name="Block-Diagram">
    <mxGraphModel dx="1248" dy="537" grid="1" gridSize="10" guides="1" tooltips="1" connect="1" arrows="1" fold="1" page="1" pageScale="1" pageWidth="827" pageHeight="1169" math="0" shadow="0">
      <root>
        <mxCell id="0" />
        <mxCell id="1" parent="0" />
        <mxCell id="9Lj-U-rQavG5mEKbug4e-1" value="" style="ellipse;whiteSpace=wrap;html=1;" vertex="1" parent="1">
          <mxGeometry x="390" y="220" width="120" height="80" as="geometry" />
        </mxCell>
      </root>
    </mxGraphModel>
  </diagram>
</mxfile>
